<?xml version="1.0" standalone="no"?>
<!DOCTYPE svg PUBLIC "-//W3C//DTD SVG 20010904//EN"
 "http://www.w3.org/TR/2001/REC-SVG-20010904/DTD/svg10.dtd">
<svg version="1.0" xmlns="http://www.w3.org/2000/svg"
 width="608.000000pt" height="606.000000pt" viewBox="0 0 608.000000 606.000000"
 preserveAspectRatio="xMidYMid meet">

<g transform="translate(0.000000,606.000000) scale(0.100000,-0.100000)"
fill="#000000" stroke="none">
<path d="M4175 4615 c-796 -129 -1518 -399 -2013 -752 -35 -25 -61 -47 -59
-49 2 -2 80 14 173 36 93 22 173 40 179 40 5 0 -40 -27 -100 -61 -255 -142
-498 -322 -682 -507 -68 -67 -123 -127 -123 -132 0 -13 6 -15 89 -32 l64 -13
-89 -59 c-263 -174 -649 -500 -616 -520 21 -13 140 -36 188 -36 28 0 75 5 104
10 29 6 55 9 57 7 1 -2 -36 -43 -84 -90 -84 -85 -86 -87 -73 -113 29 -54 147
-151 238 -197 83 -42 235 -88 247 -75 3 3 -3 21 -14 39 -57 98 -64 232 -18
332 52 114 181 234 297 278 80 30 184 24 264 -15 72 -36 185 -145 244 -236
l42 -65 0 60 c0 109 -40 213 -110 289 -67 73 -170 117 -315 134 l-70 9 50 24
c45 22 63 24 175 23 144 0 175 -9 278 -78 84 -57 137 -75 232 -82 41 -3 87 -7
102 -9 23 -4 10 13 -76 98 -127 125 -167 194 -174 303 -4 62 -1 79 22 130 59
129 238 262 416 310 90 24 247 23 320 -2 49 -17 55 -22 52 -44 -4 -39 -69
-170 -114 -227 -44 -57 -140 -127 -188 -138 -16 -4 -33 -11 -36 -17 -5 -8 19
-9 80 -6 75 5 99 11 163 43 92 46 170 121 247 237 93 142 182 206 312 227 64
10 177 1 228 -19 16 -6 31 -9 33 -6 8 7 -169 76 -260 100 -143 39 -244 49
-401 43 -164 -6 -164 -6 -1 73 117 57 246 102 382 132 84 19 130 22 317 23
l218 0 -91 43 c-147 70 -259 95 -428 96 -78 1 -139 4 -135 7 201 167 481 366
607 433 46 24 48 26 20 25 -17 0 -93 -11 -170 -24z m-1891 -1070 c-8 -28 -21
-71 -29 -97 l-14 -47 27 4 c95 14 108 15 89 1 -10 -8 -115 -64 -233 -126
l-215 -111 -55 22 c-30 13 -54 26 -54 30 0 10 144 136 240 209 84 64 251 173
256 167 2 -2 -3 -25 -12 -52z"/>
<path d="M3812 3256 c-104 -20 -224 -61 -317 -109 l-79 -41 34 -10 c85 -22
190 -60 253 -91 77 -38 170 -96 164 -102 -2 -2 -44 3 -92 12 -167 29 -334 14
-452 -40 -52 -23 -158 -94 -151 -100 2 -2 37 8 78 23 62 21 98 26 210 29 120
4 146 2 233 -21 175 -45 385 -161 552 -304 39 -33 71 -57 73 -52 6 16 -30 137
-63 206 -78 171 -232 335 -390 417 l-40 21 58 17 c157 49 400 71 557 51 41 -5
76 -8 78 -7 6 5 -168 67 -243 86 -104 27 -355 35 -463 15z"/>
<path d="M3600 2614 c56 -60 104 -123 99 -129 -2 -2 -31 3 -64 11 -218 52
-460 12 -629 -104 -75 -51 -92 -72 -52 -65 48 9 231 -18 321 -48 49 -17 114
-45 145 -62 48 -28 52 -32 30 -35 -74 -7 -150 -27 -193 -49 -50 -25 -131 -93
-148 -124 -8 -16 -2 -15 45 6 87 39 207 59 306 52 93 -7 209 -36 272 -68 22
-11 42 -18 45 -15 14 14 -68 138 -137 206 -86 86 -170 138 -275 172 -41 12
-75 26 -75 31 0 13 195 7 286 -8 115 -20 219 -55 322 -109 45 -24 82 -41 82
-39 0 3 -19 42 -42 86 -60 116 -181 236 -298 296 l-85 44 45 -49z"/>
<path d="M2130 2091 c0 -5 -20 -31 -45 -59 -87 -97 -189 -142 -324 -142 l-76
-1 38 -20 c56 -30 132 -41 196 -29 30 5 56 8 59 6 7 -8 -49 -39 -100 -57 l-50
-17 74 -36 c134 -67 268 -71 401 -14 l52 23 -54 7 c-70 11 -111 37 -141 90
-22 38 -25 55 -25 151 0 59 -1 107 -2 107 -2 0 -3 -4 -3 -9z"/>
</g>
</svg>
